<mxfile host="app.diagrams.net" modified="2024-03-12T10:22:53.813Z" agent="Mozilla/5.0 (Windows NT 10.0; Win64; x64) AppleWebKit/537.36 (KHTML, like Gecko) Chrome/122.0.0.0 Safari/537.36" etag="UktpTQJWET9DlYsOYBgn" version="24.0.5" type="device">
  <diagram name="페이지-1" id="4vqfKU-Z1omj_Xz-aR84">
    <mxGraphModel dx="1434" dy="746" grid="1" gridSize="10" guides="1" tooltips="1" connect="1" arrows="1" fold="1" page="1" pageScale="1" pageWidth="827" pageHeight="1169" math="0" shadow="0">
      <root>
        <mxCell id="0" />
        <mxCell id="1" parent="0" />
        <mxCell id="WwNhVZpdFEuE4iNHx9oS-4" style="edgeStyle=orthogonalEdgeStyle;rounded=0;orthogonalLoop=1;jettySize=auto;html=1;exitX=0.5;exitY=1;exitDx=0;exitDy=0;entryX=0.5;entryY=0;entryDx=0;entryDy=0;" edge="1" parent="1" source="WwNhVZpdFEuE4iNHx9oS-1" target="WwNhVZpdFEuE4iNHx9oS-3">
          <mxGeometry relative="1" as="geometry" />
        </mxCell>
        <mxCell id="WwNhVZpdFEuE4iNHx9oS-1" value="&lt;div&gt;sum=0;&lt;/div&gt;" style="rounded=0;whiteSpace=wrap;html=1;" vertex="1" parent="1">
          <mxGeometry x="310" y="80" width="120" height="60" as="geometry" />
        </mxCell>
        <mxCell id="WwNhVZpdFEuE4iNHx9oS-7" style="edgeStyle=orthogonalEdgeStyle;rounded=0;orthogonalLoop=1;jettySize=auto;html=1;exitX=1;exitY=0.5;exitDx=0;exitDy=0;entryX=1;entryY=0.5;entryDx=0;entryDy=0;" edge="1" parent="1" source="WwNhVZpdFEuE4iNHx9oS-2" target="WwNhVZpdFEuE4iNHx9oS-3">
          <mxGeometry relative="1" as="geometry">
            <Array as="points">
              <mxPoint x="490" y="340" />
              <mxPoint x="490" y="210" />
            </Array>
          </mxGeometry>
        </mxCell>
        <mxCell id="WwNhVZpdFEuE4iNHx9oS-8" value="F" style="edgeLabel;html=1;align=center;verticalAlign=middle;resizable=0;points=[];" vertex="1" connectable="0" parent="WwNhVZpdFEuE4iNHx9oS-7">
          <mxGeometry x="0.0644" relative="1" as="geometry">
            <mxPoint as="offset" />
          </mxGeometry>
        </mxCell>
        <mxCell id="WwNhVZpdFEuE4iNHx9oS-10" style="edgeStyle=orthogonalEdgeStyle;rounded=0;orthogonalLoop=1;jettySize=auto;html=1;exitX=0.5;exitY=1;exitDx=0;exitDy=0;entryX=0.5;entryY=0;entryDx=0;entryDy=0;" edge="1" parent="1" source="WwNhVZpdFEuE4iNHx9oS-2" target="WwNhVZpdFEuE4iNHx9oS-9">
          <mxGeometry relative="1" as="geometry" />
        </mxCell>
        <mxCell id="WwNhVZpdFEuE4iNHx9oS-11" value="T" style="edgeLabel;html=1;align=center;verticalAlign=middle;resizable=0;points=[];" vertex="1" connectable="0" parent="WwNhVZpdFEuE4iNHx9oS-10">
          <mxGeometry x="0.1143" y="2" relative="1" as="geometry">
            <mxPoint as="offset" />
          </mxGeometry>
        </mxCell>
        <mxCell id="WwNhVZpdFEuE4iNHx9oS-2" value="sum==0" style="rounded=0;whiteSpace=wrap;html=1;" vertex="1" parent="1">
          <mxGeometry x="310" y="310" width="120" height="60" as="geometry" />
        </mxCell>
        <mxCell id="WwNhVZpdFEuE4iNHx9oS-5" style="edgeStyle=orthogonalEdgeStyle;rounded=0;orthogonalLoop=1;jettySize=auto;html=1;exitX=0.5;exitY=1;exitDx=0;exitDy=0;entryX=0.5;entryY=0;entryDx=0;entryDy=0;" edge="1" parent="1" source="WwNhVZpdFEuE4iNHx9oS-3" target="WwNhVZpdFEuE4iNHx9oS-2">
          <mxGeometry relative="1" as="geometry" />
        </mxCell>
        <mxCell id="WwNhVZpdFEuE4iNHx9oS-3" value="n입력&lt;div&gt;sum+=n&lt;/div&gt;" style="rhombus;whiteSpace=wrap;html=1;" vertex="1" parent="1">
          <mxGeometry x="293" y="170" width="154" height="80" as="geometry" />
        </mxCell>
        <mxCell id="WwNhVZpdFEuE4iNHx9oS-9" value="sum 출력" style="shape=parallelogram;perimeter=parallelogramPerimeter;whiteSpace=wrap;html=1;fixedSize=1;" vertex="1" parent="1">
          <mxGeometry x="310" y="440" width="120" height="60" as="geometry" />
        </mxCell>
      </root>
    </mxGraphModel>
  </diagram>
</mxfile>
